<?xml version="1.0" encoding="utf-8"?>
<!-- Generator: Adobe Illustrator 17.0.0, SVG Export Plug-In . SVG Version: 6.00 Build 0)  -->
<!DOCTYPE svg PUBLIC "-//W3C//DTD SVG 1.1//EN" "http://www.w3.org/Graphics/SVG/1.1/DTD/svg11.dtd">
<svg version="1.1" id="Layer_1" xmlns="http://www.w3.org/2000/svg" xmlns:xlink="http://www.w3.org/1999/xlink" x="0px" y="0px"
	 width="396.85px" height="155.906px" viewBox="445.04 219.687 396.85 155.906"
	 enable-background="new 445.04 219.687 396.85 155.906" xml:space="preserve">
<g>
	<path fill="#00425F" d="M789.679,358.291V243.135l-41.127-0.037v-23.41h93.339v23.41h-24.227V358.29h-27.985V358.291z"/>
	<path fill="#1D449A" d="M696.538,290.313c0-55.083-47.324-70.089-64.15-70.61c-0.07-0.004-0.146-0.016-0.212-0.016h-47.527v23.397
		h40.559c2.344,0,6.549,0.221,6.549,0.221c13.455,2.727,37.004,15,37.004,46.556c0,27.712-22.491,41.894-36.022,45.077h-20.106
		v-68.455h-27.985v91.808h48.96c0.051,0,0.109-0.01,0.161-0.013C651.47,357.733,696.538,338.616,696.538,290.313z"/>
	<g>
		<path fill="#00425F" d="M691.993,248.843c0.353-0.313,0.728-0.616,1.138-0.903c4.6-3.228,10.966-4.842,19.098-4.842
			c7.878,0,54.94,0,54.94,0v-23.41h-60.252v0.169c-8.27,0.459-15.509,1.943-21.681,4.49c-4.056,1.672-7.583,3.77-10.615,6.264
			C681.08,235.327,687.122,241.339,691.993,248.843z"/>
		<path fill="#00425F" d="M764.087,295.567c-3.686-5.756-8.793-10.293-15.315-13.613c-6.524-3.319-16.593-6.533-30.208-9.64
			c-7.581-1.73-13.594-3.103-18.049-4.476c1.876,6.71,2.945,14.175,2.945,22.475c0,2.118-0.089,4.175-0.245,6.183
			c1,0.258,2.015,0.512,3.057,0.762c11.66,2.802,19.129,4.751,22.407,5.848c4.791,1.644,8.146,3.579,10.069,5.801
			c1.922,2.224,2.884,4.919,2.884,8.086c0,4.934-2.285,8.675-6.854,12.359c-4.571,3.686-11.362,5.528-20.374,5.528
			c-3.77,0-14.361,0-26.68,0c-10.185,12.075-23.567,19.53-34.692,23.41h60.557v-0.008c0.179,0.001,0.352,0.008,0.532,0.008
			c12.038,0,22.091-1.63,30.159-4.888c8.068-3.258,14.308-8.238,18.721-14.939c4.41-6.7,6.618-13.888,6.618-21.563
			C769.618,308.436,767.774,301.323,764.087,295.567z"/>
	</g>
	<path fill="#D1D3D4" d="M696.538,290.313c0-55.083-47.324-70.089-64.15-70.61c-0.07-0.004-0.146-0.016-0.212-0.016h-47.527v23.397
		h40.559c2.344,0,6.549,0.221,6.549,0.221c13.455,2.727,37.004,15,37.004,46.556c0,27.712-22.491,41.894-36.022,45.077h-20.106
		v-68.455h-27.985v91.808h48.96c0.051,0,0.109-0.01,0.161-0.013C651.47,357.733,696.538,338.616,696.538,290.313z"/>
	<rect x="504.148" y="266.416" fill="#D1D3D4" width="20.563" height="91.874"/>
	<polygon fill="#D1D3D4" points="493.539,358.291 476.422,358.291 476.422,280.509 496.986,280.509 496.986,355.427 	"/>
	<rect x="449.182" y="294.601" fill="#D1D3D4" width="20.563" height="63.69"/>
	<polygon fill="#00425F" points="584.648,219.687 494.963,219.687 494.963,243.098 536.091,243.135 536.091,358.291 
		564.076,358.291 564.076,243.098 584.648,243.098 	"/>
	<path fill="#D1D3D4" d="M524.369,283.862c8.378-1.302,14.991,0.04,18.415,4.418c8.443,10.797-5.708,35.969-31.608,56.223
		c-25.9,20.254-53.741,27.922-62.185,17.124c-3.423-4.378-3.131-11.119,0.151-18.937c-4.656,9.346-5.557,17.458-1.625,22.486
		c8.743,11.181,38.008,2.901,65.365-18.492c27.357-21.393,42.446-47.799,33.702-58.98
		C542.651,282.677,534.562,281.596,524.369,283.862z"/>
	
		<text transform="matrix(1.3594 0 0 1 535.3743 372.2373)" fill="#D1D3D4" font-family="'ArialMT'" font-size="10.6736" letter-spacing="4.414">MANAGEMENT SYSTEM</text>
</g>
</svg>
